<?xml version="1.0" standalone="no"?>
<!DOCTYPE svg PUBLIC "-//W3C//DTD SVG 20010904//EN"
 "http://www.w3.org/TR/2001/REC-SVG-20010904/DTD/svg10.dtd">
<svg version="1.0" xmlns="http://www.w3.org/2000/svg"
 width="700.000000pt" height="700.000000pt" viewBox="0 0 700.000000 700.000000"
 preserveAspectRatio="xMidYMid meet">
<metadata>
Created by potrace 1.14, written by Peter Selinger 2001-2017
</metadata>
<g transform="translate(0.000000,700.000000) scale(0.100000,-0.100000)"
fill="#000000" stroke="none">
<path d="M3289 6716 c-2 -2 -44 -7 -94 -10 -49 -4 -99 -9 -110 -11 -11 -2 -40
-7 -64 -10 -47 -5 -140 -24 -281 -55 -348 -78 -783 -274 -1090 -493 -311 -222
-602 -517 -811 -822 -249 -363 -425 -794 -508 -1240 -36 -194 -46 -314 -46
-565 0 -184 8 -349 19 -405 2 -11 7 -47 10 -80 4 -33 9 -67 11 -75 2 -8 7 -31
10 -50 45 -263 162 -598 307 -880 253 -491 617 -896 1087 -1208 312 -207 755
-395 1071 -456 14 -2 48 -9 75 -15 109 -23 178 -33 330 -48 155 -15 603 -8
700 11 12 2 48 8 80 12 33 4 62 9 65 9 3 1 23 5 45 9 321 62 671 187 940 334
284 156 524 338 755 571 355 359 606 767 765 1246 51 153 117 423 130 530 3
28 8 66 10 85 15 102 20 206 20 400 0 187 -10 393 -20 410 -2 3 -6 34 -10 70
-4 36 -8 67 -10 70 -2 3 -6 24 -10 47 -10 67 -61 270 -95 378 -127 398 -355
807 -629 1127 -91 106 -304 311 -418 403 -116 94 -351 253 -448 305 -432 231
-815 351 -1266 396 -58 6 -515 15 -520 10z m471 -540 c86 -7 154 -17 280 -42
324 -64 652 -200 935 -387 528 -349 920 -874 1099 -1475 36 -120 80 -318 90
-408 4 -27 9 -67 12 -89 6 -44 7 -505 0 -545 -2 -14 -7 -52 -11 -85 -46 -392
-224 -848 -464 -1190 -137 -194 -396 -468 -535 -565 -12 -8 -29 -22 -40 -31
-33 -31 -239 -165 -331 -215 -222 -122 -492 -222 -736 -273 -222 -46 -303 -54
-559 -54 -169 0 -297 6 -350 17 -8 1 -37 6 -65 10 -655 98 -1270 457 -1695
991 -233 293 -421 680 -505 1040 -24 103 -27 117 -32 150 -2 17 -8 55 -13 85
-30 179 -33 593 -6 750 3 14 7 42 11 64 62 417 265 888 525 1216 61 77 74 93
120 144 320 361 722 623 1190 776 68 22 137 43 153 46 17 2 33 7 37 9 4 2 22
7 41 10 19 3 41 8 49 10 21 6 67 14 120 21 25 3 56 7 70 10 14 2 59 7 100 10
41 4 76 7 78 9 4 3 364 -4 432 -9z"/>
<path d="M3430 6093 c-47 -7 -145 -46 -185 -73 -22 -16 -62 -50 -88 -78 l-48
-49 -94 3 c-72 3 -108 -1 -157 -16 -124 -38 -225 -126 -286 -249 -36 -73 -37
-78 -39 -199 l-1 -125 -45 -36 c-150 -123 -213 -323 -157 -502 32 -106 97
-189 202 -260 49 -34 56 -42 53 -66 -2 -16 -4 -35 -4 -43 -1 -12 -15 -15 -61
-15 -64 -1 -95 -17 -134 -69 -16 -21 -20 -40 -19 -84 5 -107 2 -250 -6 -329 0
-7 -7 -13 -14 -13 -8 0 -45 -20 -82 -44 l-69 -44 -36 23 c-88 55 -237 79 -342
55 -59 -14 -137 -51 -184 -86 -36 -28 -49 -30 -40 -9 3 8 12 54 21 103 8 48
17 98 20 112 2 13 7 42 10 65 8 54 14 89 25 155 5 30 12 75 15 100 3 25 10 72
15 105 5 33 11 78 15 100 10 69 36 159 59 205 13 25 33 65 46 89 65 129 -62
272 -193 217 -86 -35 -192 -262 -220 -473 -4 -22 -8 -52 -11 -65 -3 -12 -8
-45 -11 -73 -12 -97 -56 -374 -80 -495 -19 -95 -23 -121 -24 -140 -2 -28 -17
-39 -56 -45 -127 -19 -205 -67 -244 -149 -72 -155 28 -326 191 -326 33 0 35
-9 8 -42 -26 -33 -60 -122 -66 -172 -3 -23 -6 -52 -8 -66 -10 -80 37 -223 100
-302 l32 -42 -21 -50 c-28 -69 -30 -237 -4 -314 55 -157 200 -277 374 -308 37
-7 35 -5 72 -78 61 -122 151 -201 281 -245 140 -49 287 -23 422 74 l49 36 69
-25 c126 -46 273 -38 383 21 65 35 154 123 190 187 35 62 57 149 57 219 l0 56
69 36 c79 42 157 113 205 188 62 97 66 122 72 426 l5 276 -68 23 c-71 25 -123
61 -123 86 0 27 21 28 58 4 56 -37 97 -48 179 -48 87 0 131 19 204 87 l47 44
42 -21 c42 -22 179 -53 181 -41 0 3 4 -3 9 -15 4 -12 33 -35 64 -53 45 -25 56
-36 56 -57 0 -22 -3 -24 -22 -19 -13 4 -44 20 -71 36 -26 16 -51 29 -56 29 -9
0 -34 -96 -46 -180 -10 -69 -7 -278 5 -340 29 -153 111 -341 206 -476 64 -91
193 -218 288 -285 84 -59 86 -77 3 -34 -252 132 -439 377 -527 689 -30 106
-34 145 -33 311 0 117 5 169 22 238 11 49 21 95 21 102 0 7 -23 27 -52 43
l-52 30 -50 -45 c-55 -49 -99 -74 -163 -93 l-43 -13 4 -273 c3 -225 7 -281 21
-326 39 -117 138 -231 255 -292 l67 -36 6 -86 c4 -72 11 -98 41 -159 86 -174
246 -275 426 -269 81 3 101 7 173 34 l57 22 39 -32 c51 -40 153 -86 217 -97
196 -36 405 75 495 263 33 70 34 71 73 78 36 6 122 35 151 50 98 51 188 158
221 263 27 82 25 229 -2 303 l-20 55 42 62 c81 119 106 241 75 373 -28 117
-114 232 -220 295 -28 17 -51 32 -51 35 0 9 59 72 180 196 66 66 126 136 134
155 38 90 -23 193 -122 206 -59 8 -110 -21 -221 -127 -52 -50 -98 -90 -101
-90 -3 0 -4 45 -2 100 2 58 -1 114 -8 134 -51 154 -224 158 -310 7 -56 -98
-59 -102 -60 -63 0 66 -49 125 -115 140 -40 9 -101 -1 -120 -19 -15 -15 -22
-10 -22 14 5 194 -131 320 -289 266 -21 -7 -44 -16 -49 -21 -6 -4 -22 -11 -36
-17 l-26 -9 3 105 c2 97 4 106 26 121 276 192 292 567 33 769 l-40 31 2 107
c2 86 -2 119 -18 168 -43 129 -148 237 -280 289 -43 17 -77 22 -166 23 l-112
1 -58 55 c-75 71 -106 92 -174 117 -54 20 -173 33 -229 25z m81 -195 c1 -13 3
-36 5 -53 2 -16 6 -226 10 -465 3 -239 7 -441 10 -449 7 -22 57 42 98 125 76
155 103 330 81 545 -4 40 -9 81 -10 89 -2 8 -8 40 -14 70 -6 30 -14 63 -17 73
-3 9 -1 17 4 17 14 0 63 -133 78 -210 7 -36 13 -130 12 -210 0 -119 -5 -160
-25 -234 -35 -132 -85 -228 -154 -300 l-59 -60 0 -114 0 -113 69 36 c175 92
280 240 347 490 23 85 35 229 31 372 -2 89 -1 160 3 158 19 -12 44 -167 44
-275 0 -207 -41 -379 -129 -535 -60 -108 -202 -233 -320 -282 l-45 -18 0 -82
c0 -73 -2 -84 -22 -97 -12 -9 -26 -16 -30 -16 -4 0 -7 30 -7 68 1 134 6 124
-65 155 -77 35 -185 119 -244 190 -74 90 -146 257 -167 387 -4 25 -9 54 -12
65 -3 11 -6 70 -8 130 -4 110 12 231 38 294 10 24 12 -2 10 -162 -2 -168 1
-206 21 -302 27 -127 73 -251 118 -321 47 -72 144 -165 213 -205 102 -59 95
-63 96 54 1 56 1 108 0 115 -1 6 -23 32 -49 56 -61 57 -106 133 -141 237 -44
132 -49 163 -49 318 -1 160 12 240 54 345 27 68 46 95 39 54 -3 -13 -11 -57
-19 -98 -32 -159 -37 -324 -16 -440 7 -36 14 -75 16 -88 17 -90 134 -307 154
-285 5 4 11 211 14 458 3 248 7 459 10 470 2 11 5 30 5 43 1 12 6 22 11 22 6
0 10 -10 11 -22z m-732 -510 c3 -81 15 -205 26 -258 25 -129 57 -232 105 -337
66 -143 135 -229 258 -321 71 -52 224 -132 254 -132 22 0 28 -11 17 -31 -15
-28 -42 -23 -145 25 -269 128 -438 350 -516 676 -28 117 -33 357 -9 438 5 14
8 -9 10 -60z m1468 -113 c2 -169 -8 -226 -51 -289 -40 -60 -44 -72 -51 -152
-7 -82 -39 -153 -111 -241 -82 -100 -168 -174 -265 -227 -65 -35 -66 -36 -83
-17 -17 19 -16 20 31 47 137 78 255 188 322 298 76 127 149 354 167 521 4 33
8 67 10 75 1 8 3 47 4 85 0 60 2 67 13 50 7 -13 13 -68 14 -150z m-1663 -170
c4 -38 11 -97 17 -130 50 -292 228 -580 464 -750 58 -41 191 -115 231 -128
114 -36 129 -44 132 -70 2 -15 -2 -27 -8 -27 -6 0 -54 16 -107 36 -180 68
-289 137 -423 273 -170 171 -288 390 -318 591 -16 111 -14 296 3 278 2 -2 6
-34 9 -73z m1855 12 c4 -72 4 -81 2 -121 -1 -34 -3 -37 -17 -25 -14 11 -15 28
-11 109 4 52 6 97 7 100 2 20 17 -29 19 -63z m-2716 -209 c2 -7 -15 -51 -38
-98 -40 -80 -78 -209 -90 -310 -3 -25 -10 -70 -15 -100 -5 -30 -12 -75 -15
-100 -3 -25 -12 -83 -20 -130 -8 -47 -17 -103 -21 -125 -9 -64 -41 -223 -63
-318 -12 -48 -21 -94 -21 -101 0 -12 19 -17 140 -41 52 -10 191 -35 220 -40
19 -3 46 -7 60 -10 169 -30 366 -39 425 -19 59 20 74 18 81 -12 8 -32 -20 -58
-76 -71 -37 -10 -210 -9 -270 0 -19 3 -61 9 -92 12 -31 4 -161 26 -289 49
l-232 43 -16 -21 c-37 -47 -88 -94 -116 -108 -42 -20 -117 -23 -153 -4 -64 33
-67 124 -6 181 39 37 52 41 155 44 41 1 77 5 81 9 14 15 57 213 98 454 23 130
25 144 36 223 3 28 8 57 9 65 2 8 6 40 10 70 4 30 9 64 11 75 2 11 9 46 14 78
24 127 82 269 131 318 15 15 24 17 38 9 11 -5 21 -15 24 -22z m2604 -11 c8 -5
10 -49 8 -150 -2 -78 -6 -280 -10 -450 l-7 -307 94 93 c95 94 161 137 212 137
58 0 86 -33 93 -109 6 -72 -15 -134 -83 -247 l-64 -106 23 -19 c66 -59 139
-67 224 -27 58 27 69 47 82 142 12 84 22 106 51 106 34 0 41 -22 30 -106 -17
-135 -26 -269 -21 -321 2 -24 38 -13 76 24 52 51 112 146 185 296 50 102 67
128 87 133 16 4 30 1 41 -10 15 -15 17 -46 16 -271 -1 -140 0 -255 2 -255 3 0
30 28 62 62 270 290 341 355 373 337 11 -5 19 -17 19 -27 0 -9 -39 -57 -87
-107 -144 -150 -345 -369 -361 -393 -10 -15 -15 -56 -18 -130 -5 -164 -19
-314 -39 -412 -3 -14 -8 -41 -11 -60 -25 -137 -111 -287 -188 -327 -156 -82
-284 113 -220 335 40 139 175 364 330 549 l51 61 3 169 c3 239 3 254 -3 259
-3 3 -21 -25 -41 -63 -85 -160 -185 -263 -255 -263 -82 0 -113 48 -105 159 l5
64 -23 -15 c-22 -15 -46 -22 -112 -34 -46 -8 -130 14 -172 46 -22 16 -43 30
-47 30 -5 0 -29 -17 -55 -39 -54 -45 -102 -71 -131 -71 -11 0 -22 -4 -26 -9
-3 -6 -8 -119 -10 -253 -12 -577 -13 -588 -51 -588 -34 0 -36 51 -20 668 2 61
-1 112 -6 112 -5 0 -21 -12 -36 -26 -61 -58 -110 -78 -201 -82 -79 -4 -90 -2
-141 25 -34 18 -66 45 -85 72 -27 39 -30 50 -30 124 0 160 41 264 142 364 62
61 106 75 159 49 56 -26 37 -80 -25 -70 -48 8 -104 -47 -157 -154 -45 -91 -58
-205 -30 -257 41 -76 158 -101 251 -54 51 25 115 92 141 148 22 45 20 20 39
851 9 371 13 412 48 406 7 -1 17 -5 24 -9z m-197 -537 c0 -50 -103 -148 -230
-217 -30 -16 -77 -44 -105 -62 -49 -31 -50 -31 -57 -10 -5 11 -6 25 -3 29 3 5
38 26 79 49 79 43 196 132 261 199 22 22 43 41 48 41 4 1 7 -12 7 -29z m-1557
-78 c9 -9 17 -29 17 -48 0 -31 -2 -33 -47 -40 -83 -12 -122 21 -87 74 28 42
77 49 117 14z m1025 7 c-10 -7 -10 -11 3 -21 40 -31 26 -78 -22 -78 -22 0 -32
5 -36 20 -3 11 -10 20 -15 20 -5 0 -7 -4 -3 -9 3 -5 1 -12 -4 -15 -14 -9 -21
21 -12 47 14 37 56 60 89 49 11 -4 11 -6 0 -13z m-1047 -211 c12 -19 17 -534
6 -580 -8 -30 -41 -42 -59 -21 -14 17 -21 563 -7 600 6 16 13 20 31 16 13 -4
26 -10 29 -15z m1064 -12 c3 -11 7 -143 8 -292 2 -287 0 -304 -44 -304 -24 0
-41 41 -39 95 1 22 1 67 1 100 l-2 60 -77 -80 c-42 -44 -114 -121 -158 -170
-45 -50 -98 -108 -118 -130 -35 -39 -36 -43 -37 -120 -7 -524 -114 -832 -297
-850 -84 -8 -142 44 -166 148 -41 175 51 391 301 710 l85 108 3 215 c1 118 1
214 0 214 -1 0 -24 -37 -50 -82 -118 -204 -210 -277 -302 -239 -48 20 -57 53
-49 186 4 64 9 123 11 133 1 9 6 48 10 85 9 80 30 113 64 102 23 -7 23 -10 17
-84 -4 -42 -9 -92 -11 -111 -3 -19 -7 -79 -9 -132 -6 -121 3 -133 62 -83 53
46 116 142 187 285 57 116 88 160 112 160 7 0 19 -10 27 -22 11 -18 14 -68 14
-233 0 -115 1 -229 1 -253 l1 -43 23 24 c12 14 44 49 71 78 26 30 102 108 167
175 l120 121 1 109 c1 120 12 156 48 147 11 -3 23 -15 25 -27z m485 -267 c-14
-8 -56 -33 -94 -54 l-69 -38 7 27 c4 15 18 45 31 66 20 32 32 39 82 51 l58 14
5 -25 c4 -19 0 -29 -20 -41z m683 51 c-8 -30 -21 -34 -15 -5 2 14 8 25 12 25
5 0 6 -9 3 -20z m-1433 -34 c0 -9 -59 -66 -69 -66 -21 0 -11 18 27 43 40 28
42 29 42 23z m-999 -163 c5 -5 -8 -9 -27 -10 -19 -1 -47 -8 -63 -16 -27 -13
-120 -15 -212 -3 -19 3 -47 5 -63 5 -45 1 -19 18 39 26 27 3 51 7 52 9 7 6
267 -4 274 -11z m2451 -255 l22 -22 -84 -12 c-95 -12 -186 -37 -240 -64 -19
-9 -45 -20 -57 -24 -19 -6 -21 -4 -19 19 2 14 7 29 12 34 17 15 116 52 187 71
100 26 151 26 179 -2z m-1861 -41 c-16 -16 -26 0 -10 19 9 11 15 12 17 4 2 -6
-1 -17 -7 -23z m2209 14 c0 -13 -25 -31 -49 -36 -29 -5 -26 7 7 27 32 19 42
21 42 9z m-2659 -15 c81 -25 191 -90 268 -159 27 -24 29 -30 20 -51 l-11 -24
-77 60 c-70 56 -182 119 -263 148 -32 11 -32 12 -14 26 24 17 20 17 77 0z
m-661 -15 c47 -1 30 -13 -65 -46 -44 -15 -133 -53 -198 -86 -65 -32 -121 -59
-125 -59 -9 0 39 40 95 80 73 52 212 120 236 116 12 -3 38 -5 57 -5z m3695
-162 l40 -40 -42 23 c-23 13 -44 31 -47 40 -7 28 7 22 49 -23z m-3315 -23 c41
-2 89 -9 105 -15 73 -27 147 -65 212 -108 l51 -35 74 42 c40 24 78 45 83 49
13 7 -21 -47 -49 -77 -11 -13 -35 -32 -52 -43 -28 -17 -31 -23 -27 -59 3 -24
-5 -78 -20 -137 -14 -54 -28 -133 -31 -176 -5 -67 -11 -86 -41 -133 -50 -78
-50 -78 -150 -179 -98 -99 -244 -202 -333 -235 -66 -25 -192 -60 -192 -54 0 2
48 28 108 57 159 77 244 139 372 267 174 174 228 282 236 472 2 67 0 109 -6
113 -6 4 -53 -17 -104 -45 -93 -51 -94 -52 -100 -96 -13 -95 -101 -240 -202
-333 -161 -147 -422 -269 -556 -259 -42 3 -41 4 56 36 207 69 376 171 497 300
74 79 105 126 140 215 l19 48 -62 -34 c-35 -18 -173 -97 -308 -174 -336 -192
-530 -294 -530 -278 0 22 125 103 445 290 148 86 281 165 295 174 14 9 36 22
50 29 41 21 64 41 56 49 -4 5 -65 8 -134 7 -116 0 -135 -3 -222 -33 -151 -51
-303 -140 -417 -243 -32 -29 -69 -62 -82 -73 l-24 -20 18 35 c30 59 173 192
266 247 218 129 434 176 603 130 59 -15 74 -16 100 -5 50 20 156 89 156 102 0
23 -146 95 -250 122 -212 56 -584 -55 -844 -253 -33 -25 -45 -31 -38 -17 16
30 137 135 203 176 127 77 347 152 464 157 33 2 62 4 63 6 2 2 9 2 15 0 7 -2
46 -6 87 -9z m2748 5 c25 -1 28 -13 8 -34 -10 -9 -39 -15 -86 -16 -130 -3
-232 -33 -346 -102 l-55 -34 27 -21 c14 -12 57 -38 95 -58 l70 -37 77 19 c42
11 78 16 80 11 7 -18 -21 -50 -49 -56 -28 -5 -51 -23 -30 -23 19 0 39 -30 34
-50 -6 -24 -16 -25 -48 -4 -22 14 -25 15 -25 1 0 -8 9 -37 21 -64 25 -57 41
-155 25 -150 -18 5 -95 167 -102 214 -5 37 -13 48 -48 71 -54 36 -141 82 -155
82 -19 0 -5 -214 17 -281 54 -155 172 -301 356 -440 79 -60 113 -80 261 -152
75 -36 78 -38 37 -33 -156 22 -365 147 -519 310 -84 89 -130 159 -171 258 -28
67 -28 78 -19 273 4 66 7 127 7 136 0 17 114 98 177 124 96 42 202 62 298 58
22 0 50 -2 63 -2z m577 -246 c35 -31 71 -68 80 -82 14 -21 5 -17 -51 23 -94
65 -104 74 -104 96 0 10 3 18 6 18 3 0 34 -25 69 -55z m-51 -265 c47 -43 147
-162 141 -168 -5 -5 -34 17 -113 87 -31 27 -67 58 -79 68 -16 13 -21 24 -17
40 7 26 13 24 68 -27z m-1273 -94 c31 -83 58 -133 122 -224 96 -136 269 -295
418 -383 92 -55 95 -65 12 -34 -286 107 -578 442 -628 720 l-8 40 31 -29 c17
-15 41 -56 53 -90z m1218 -143 c92 -57 171 -115 171 -125 0 -9 -102 35 -207
90 -75 40 -81 45 -70 63 6 10 16 19 21 19 5 0 43 -21 85 -47z m-2745 -109 c27
-10 18 -27 -59 -111 -125 -135 -254 -227 -391 -279 -79 -29 -76 -21 8 31 109
66 201 141 306 246 56 56 102 106 102 111 0 10 12 10 34 2z m306 -13 c0 -23
-108 -169 -173 -234 -80 -79 -146 -126 -244 -176 -95 -47 -84 -29 27 47 69 47
234 212 279 279 19 28 51 61 70 72 42 24 41 24 41 12z m2260 -44 c47 -18 112
-42 145 -52 45 -14 55 -20 40 -25 -29 -10 -148 15 -248 52 -87 32 -88 33 -60
45 37 16 27 18 123 -20z"/>
<path d="M1169 3527 c-57 -61 28 -83 100 -26 47 37 40 50 -25 48 -42 -2 -61
-7 -75 -22z"/>
<path d="M4576 4128 c-52 -27 -154 -133 -211 -218 -25 -37 -45 -71 -45 -74 0
-4 19 -5 43 -3 23 2 65 -2 92 -9 49 -13 51 -12 71 12 31 37 99 154 112 193 15
44 15 94 0 109 -15 15 -15 15 -62 -10z"/>
<path d="M4330 3745 c-29 -35 -20 -86 17 -91 17 -3 103 74 103 92 0 20 -103
19 -120 -1z"/>
<path d="M5201 3114 c-58 -78 -112 -161 -163 -253 -71 -126 -97 -265 -65 -344
43 -102 124 -76 196 63 15 30 32 69 36 85 5 17 10 35 11 40 13 41 34 153 39
215 14 146 20 268 14 274 -2 3 -33 -34 -68 -80z"/>
<path d="M3530 4255 c0 -8 2 -15 4 -15 2 0 6 7 10 15 3 8 1 15 -4 15 -6 0 -10
-7 -10 -15z"/>
<path d="M2993 3108 c-179 -248 -245 -396 -236 -523 7 -97 58 -155 111 -126
24 13 82 84 99 121 45 96 70 208 88 390 10 108 12 198 5 210 -5 7 -30 -20 -67
-72z"/>
</g>
</svg>
